<?xml version="1.0" encoding="iso-8859-1"?>
<svg width="35" height="35" viewBox="0 0 19 20" fill="none" xmlns="http://www.w3.org/2000/svg">
<path d="M9.68054 8.5592V12.3083H14.8905C14.6617 13.514 13.9752 14.5349 12.9455 15.2213L16.0873 17.6591C17.9179 15.9694 18.9739 13.4876 18.9739 10.5394C18.9739 9.853 18.9123 9.19289 18.7979 8.55931L9.68054 8.5592Z" fill="#484848"/>
<path d="M4.2552 12.1619L3.54661 12.7043L1.03839 14.6581C2.6313 17.8174 5.89608 20 9.68032 20C12.294 20 14.4854 19.1376 16.0871 17.6591L12.9453 15.2213C12.0828 15.8021 10.9828 16.1542 9.68032 16.1542C7.16335 16.1542 5.02487 14.4557 4.25916 12.1675L4.2552 12.1619Z" fill="#484848"/>
<path d="M1.0384 5.98065C0.378387 7.28309 0 8.75281 0 10.3193C0 11.8858 0.378387 13.3555 1.0384 14.6579C1.0384 14.6667 4.25948 12.1586 4.25948 12.1586C4.06586 11.5777 3.95142 10.9617 3.95142 10.3192C3.95142 9.67666 4.06586 9.06066 4.25948 8.47982L1.0384 5.98065Z" fill="#484848"/>
<path d="M9.68051 4.49334C11.1062 4.49334 12.3735 4.98616 13.3856 5.93664L16.1577 3.16448C14.4768 1.598 12.2943 0.638672 9.68051 0.638672C5.89628 0.638672 2.6313 2.81242 1.03839 5.98065L4.25937 8.48003C5.02498 6.19184 7.16355 4.49334 9.68051 4.49334Z" fill="#484848"/>
</svg>
